<svg id="Calque_1" data-name="Calque 1" xmlns="http://www.w3.org/2000/svg" viewBox="0 0 1741.56 513.15"><path d="M844.38,381.86l-44.1,61.31C763,495,725.49,546.76,688.48,598.83c-7.66,10.78-24.66,9.59-31.28.32C608.34,530.73,559,462.66,509.77,394.49c-3-4.14-6-8.23-9.92-13.49v6.22q0,198.79,0,397.57c0,8.66-4.58,15.1-12.29,17.38a17.71,17.71,0,0,1-20-7.71A18.93,18.93,0,0,1,465,784.15q.06-139.26,0-278.53,0-87.27,0-174.55c0-9.77,4.79-16.8,13.2-19.4,7.9-2.44,15.34.57,21,8.47Q585.11,439.21,671,558.27c.64.87,1.4,1.66,2.25,2.66q27.28-38,54.34-75.62l108-150.3c3.83-5.34,7.65-10.7,11.51-16,5.17-7.11,12.8-9.75,20.57-7.16,6.95,2.31,12.1,9.8,12.11,17.86q.06,28.23,0,56.46v96.11c2.42-2.77,3-5.82,4.23-8.51q43.39-93.61,139-132.29c41-16.66,83.81-21.78,127.64-16.67,47.26,5.5,89.57,23.62,127.36,52.39,8.49,6.46,10.54,17.35,4.87,24.82-6.47,8.52-18.05,10.05-26.67,3.12-30-24.11-64.11-39.22-102-44.42-73.27-10-137.86,9.29-191.65,60.75-35,33.48-56.27,74.65-62.4,122.77-8.65,67.81,11,127,57.89,176.63,30.26,32,67.42,52.78,110.4,62.27,63.72,14.07,123,3.13,177.43-33.31,2.87-1.93,4.11-3.93,4.1-7.56q-.23-67.75,0-135.5c0-3.82-.77-4.91-4.78-4.9-42.81.17-85.62.12-128.44.09-11.54,0-19-7-18.85-17.52.09-9.83,7.28-17.21,17.2-17.35,10.66-.14,21.33,0,32,0,40,0,80,.27,120-.18a18.61,18.61,0,0,1,18.64,18.54c-.16,56.46-.08,112.92-.07,169.38,0,6.91-2.83,12.26-8.33,16.49-36.83,28.34-78.45,45.11-124.44,50.75-100.46,12.3-200.41-33.51-253.51-120.2a398.79,398.79,0,0,1-19.58-37.06v4.76q0,57.87,0,115.75c0,8.8-6.16,16.19-14.18,17.3-9,1.24-16.6-3.26-19.19-11.43-1-3.18-.94-6.49-.94-9.79q0-196.9,0-393.8v-5.48Z" transform="translate(-145 -310.84)" fill="#585857"/><path d="M1506.77,748q16.37-16.94,31.75-34.74c1-2.9,3.19-5.06,5.19-7.18,11.92-12.66,23.56-25.57,35.28-38.41s23.26-25.41,34.84-38.16c8.74-9.61,17.41-19.31,26.47-28.63,6.25-6.43,11.77-6.4,18.36-.11q11,10.56,22,21.2c12.94,12.55,26,24.9,38.93,37.51,7.49,7.34,15.07,14.62,22.6,21.93a13.58,13.58,0,0,1,3.28,4c5.82,7.85,6.44,7.79,11.88.07,9.93-14.12,20-28.14,30-42.22.89-1.26,1.64-2.63,2.45-3.95q22.7-31.66,45.39-63.35c5.26-7.35,10.48-14.72,16.17-22.72-9.15-.45-17.47.6-25.79,1-10.33.45-20.63,1.18-31,1.76-4.25.24-7.74-1.24-9.83-5.09a9,9,0,0,1,.37-9.79c2.08-3.16,5.14-4.3,8.8-4.49q29.55-1.53,59.09-3.17c5.79-.31,11.57-.76,17.35-.9,6.7-.16,10.3,3.59,10.65,10.35q2.61,49.71,5.32,99.42c.06,1.1.16,2.19.2,3.28.26,6.57-3.37,11.11-9.12,11.45s-9.73-3.41-10.14-9.92c-.91-14.22-1.55-28.45-2.32-42.68-.6-10.91-1.24-21.81-1.85-32.66-1.58-.44-1.76.79-2.23,1.46q-34,47.6-67.9,95.23a34.6,34.6,0,0,0-1.82,3.27c-5.8,10.4-13.69,19.35-20.22,29.26-2.58,3.9-5.4,7.65-8.15,11.44-4,5.47-10.47,6.53-16.07,2.65-3.1-2.14-5.49-5.08-8.21-7.64-18-16.9-35.42-34.49-53.73-51.12q-1.9-1.74-3.71-3.6c-9.14-9.45-18.83-18.35-28.3-27.46-2.35-2.27-3.7-1.79-5.74.23-5.45,5.41-10.41,11.27-15.58,16.92-9.08,9.92-18.27,19.74-27.26,29.75-11.82,13.14-23.9,26-35.71,39.19-6.06,6.74-12.44,13.21-18.37,20.09-6.57,6.38-12.51,13.35-18.84,19.95-4.06,4.24-7.72,8.87-12.25,12.66-9.21,8.71-17.23,18.53-25.92,27.72-4.94,5.23-9.73,10.6-14.64,15.87-4,4.31-10.19,4.78-14.2,1.14s-4-9.71.13-14.28c10.52-11.57,21.14-23.07,31.69-34.61C1499.67,755.87,1503.21,751.9,1506.77,748Z" transform="translate(-145 -310.84)" fill="#ee730a"/><path d="M1409.85,665.15q0,63.72,0,127.45c0,2,0,4.07-.15,6.1-.6,13-6.28,19-19.27,20.33-15.52,1.62-24.69-6.43-25-21.94,0-.78,0-1.56,0-2.35q0-130.26,0-260.53a47.11,47.11,0,0,1,.78-8.87c1.41-7.38,5.74-12.1,13-13.91a32.32,32.32,0,0,1,19.88.95c6.66,2.6,9.63,8.19,10.46,15a66.14,66.14,0,0,1,.32,8Q1409.86,600.26,1409.85,665.15Z" transform="translate(-145 -310.84)" fill="#ee730a"/><path d="M1505.85,748c-10.6-16.88-18.13-35-21.37-54.71a157.53,157.53,0,0,1-2.41-25.66q0-133.32,0-266.64c0-19.17,18-29.62,34.85-20.16,7.31,4.11,9.25,11.09,9.27,18.79.07,23.52,0,47,0,70.54v85.54c51-47.22,109.37-59,172.4-32.13,50.08,21.34,80.3,61.41,90.22,115.69.94,1.78-.33,3-1.17,4.24-10.81,15.56-22,30.85-32.91,46.34-2.57,3.64-3.65,3.6-7.18.65-1.92-1.6-4-3.15-4.06-6,3.52-21.37,2.11-42.4-7-62.12-17.33-37.37-46-60.71-87.48-65.74-52.41-6.35-94.77,23.81-113,66-12.29,28.52-11.42,57.67.83,86.34a19.7,19.7,0,0,1,1.38,3.48c.33,1.72-.52,3-1.63,4.16-8.74,9.3-17.18,18.88-25.88,28.22C1509.43,746.22,1508.25,748.11,1505.85,748Z" transform="translate(-145 -310.84)" fill="#b4b4b4"/><path d="M1738.19,706.58c2.37,2.24,4.68,4.54,7.13,6.69,5.5,4.83,11.73,4.06,15.93-1.88q13.45-19,26.91-38a10.91,10.91,0,0,1,2.08-1.78,129,129,0,0,1-9.26,48c-16.38,41-44.55,71.78-85.64,87.83-56.28,22-109.49,14.9-157.29-23.72a151.11,151.11,0,0,1-20-19.8,404.79,404.79,0,0,1,30.32-33c2,0,2.95,1.56,4.06,2.86,18.15,21.33,40.53,35.36,68.66,38.85,34.28,4.26,64.43-4.85,89.71-28.9a111.6,111.6,0,0,0,24.28-33.16C1735.85,709.06,1736.43,707.35,1738.19,706.58Z" transform="translate(-145 -310.84)" fill="#b4b4b4"/><path d="M1421.13,411.48c0,18.5-14.81,33.14-33.65,33.15-18.3,0-33.41-15-33.29-33.06s15.28-33.32,33.23-33.34A33.62,33.62,0,0,1,1421.13,411.48Z" transform="translate(-145 -310.84)" fill="#ee730a"/><g id="layer1"><path id="rect1402" d="M247.54,637.78H373.77a18.65,18.65,0,0,1,18.59,18.69V783.39a18.65,18.65,0,0,1-18.59,18.69H247.54a18.65,18.65,0,0,1-18.6-18.69V656.49A18.66,18.66,0,0,1,247.54,637.78Z" transform="translate(-145 -310.84)" fill="#ee730d" fill-rule="evenodd"/><path id="rect1402-0" d="M215,556H341.26a18.65,18.65,0,0,1,18.6,18.7V701.58a18.65,18.65,0,0,1-18.6,18.7H215a18.65,18.65,0,0,1-18.6-18.7V574.67A18.65,18.65,0,0,1,215,556Z" transform="translate(-145 -310.84)" fill="#585857" fill-opacity="0.8" fill-rule="evenodd"/><path id="rect1402-9" d="M163.6,607.08H289.82a18.65,18.65,0,0,1,18.6,18.69V752.69a18.65,18.65,0,0,1-18.6,18.69H163.6A18.65,18.65,0,0,1,145,752.69V625.77A18.65,18.65,0,0,1,163.6,607.08Z" transform="translate(-145 -310.84)" fill="#b4b4b4" fill-opacity="0.8" fill-rule="evenodd"/></g></svg>